<!-- svg-sprite -->
<svg id="mysprite" xmlns="http://www.w3.org/2000/svg" fill="none" aria-hidden="true"
    focusable="false">

    <!-- cart -->
    <symbol id="icon-cart" viewBox="0 0 24 24">
        <path
            d="M8.40625 19.6967C8.40625 18.9493 9.01067 18.3434 9.75625 18.3434C10.5018 18.3434 11.1063 18.9493 11.1063 19.6967C11.1063 20.4441 10.5018 21.05 9.75625 21.05C9.01067 21.05 8.40625 20.4441 8.40625 19.6967Z"
            fill="currentColor" />
        <path
            d="M15.8418 19.6967C15.8418 18.9493 16.4462 18.3434 17.1918 18.3434C17.9374 18.3434 18.5418 18.9493 18.5418 19.6967C18.5418 20.4441 17.9374 21.05 17.1918 21.05C16.4462 21.05 15.8418 20.4441 15.8418 19.6967Z"
            fill="currentColor" />
        <path
            d="M3 3.94995H4.6398C4.85499 3.94995 5.04604 4.08763 5.11412 4.29177L8.21064 13.5768C8.48296 14.3934 9.24717 14.9441 10.1079 14.9441H16.8498C17.7309 14.9441 18.5082 14.3676 18.7638 13.5244L20.8044 6.79386C20.9018 6.47275 20.6615 6.14878 20.3259 6.14878H9.99994"
            stroke="currentColor" stroke-width="2" stroke-linecap="round" stroke-linejoin="round" />
    </symbol>

    <!-- burger -->
    <symbol id="icon-burger" viewBox="0 0 24 24">
        <path
            d="M20 16C20.5523 16 21 16.4477 21 17C21 17.5523 20.5523 18 20 18H4C3.44772 18 3 17.5523 3 17C3 16.4477 3.44772 16 4 16H20ZM20 11C20.5523 11 21 11.4477 21 12C21 12.5523 20.5523 13 20 13H4C3.44772 13 3 12.5523 3 12C3 11.4477 3.44772 11 4 11H20ZM20 6C20.5523 6 21 6.44772 21 7C21 7.55228 20.5523 8 20 8H4C3.44772 8 3 7.55228 3 7C3 6.44772 3.44772 6 4 6H20Z"
            fill="currentColor" />
    </symbol>

    <!-- arrow-left -->
    <symbol id="icon-arrow-left" viewBox="0 0 24 24">
        <path fill-rule="evenodd" clip-rule="evenodd"
            d="M15.7002 4.29289C15.3005 3.90237 14.6524 3.90237 14.2527 4.29289L7.44969 10.9393C6.8501 11.5251 6.85011 12.4749 7.44969 13.0607L14.2527 19.7071C14.6524 20.0976 15.3005 20.0976 15.7002 19.7071C16.0999 19.3166 16.0999 18.6834 15.7002 18.2929L9.25909 12L15.7002 5.70711C16.0999 5.31658 16.0999 4.68342 15.7002 4.29289Z"
            fill="#141414" />
    </symbol>

    <!-- arrow-right -->
    <symbol id="icon-arrow-right" viewBox="0 0 24 24">
        <path fill-rule="evenodd" clip-rule="evenodd"
            d="M8.29979 19.7071C8.69951 20.0976 9.34759 20.0976 9.74732 19.7071L16.5503 13.0607C17.1499 12.4749 17.1499 11.5251 16.5503 10.9393L9.74732 4.29289C9.34759 3.90237 8.69951 3.90237 8.29979 4.29289C7.90007 4.68342 7.90007 5.31658 8.29979 5.70711L14.7409 12L8.29979 18.2929C7.90007 18.6834 7.90007 19.3166 8.29979 19.7071Z"
            fill="#141414" />
    </symbol>
</svg>